<?xml version="1.0" standalone="yes"?>

<svg version="1.1" viewBox="0.0 0.0 335.0 171.0" fill="none" stroke="none" stroke-linecap="square" stroke-miterlimit="10" xmlns="http://www.w3.org/2000/svg" xmlns:xlink="http://www.w3.org/1999/xlink"><clipPath id="p.0"><path d="m0 0l335.0 0l0 171.0l-335.0 0l0 -171.0z" clip-rule="nonzero"></path></clipPath><g clip-path="url(#p.0)"><path fill="#000000" fill-opacity="0.0" d="m0 0l335.05774 0l0 171.29396l-335.05774 0z" fill-rule="nonzero"></path><path fill="#000000" d="m254.33444 4.170051q0 10.487467 -1.8773956 20.121302q-1.8773804 9.593187 -3.8771973 19.83676q9.019608 -4.9591904 17.794327 -9.715134q8.77475 -4.755945 19.05954 -8.251768l1.5100708 -0.48778915l7.019806 20.974932l-1.9998474 0.73168564q-10.039917 3.7397156 -20.079834 4.8778915q-10.0399475 1.138176 -20.56961 1.8698578q8.284973 6.991646 15.549652 13.617443q7.2646484 6.6258087 13.549805 15.365364l1.2651978 1.7479095l-18.32492 12.723167l-0.9794922 -1.5040207q-6.040283 -8.983444 -10.448059 -17.844948q-4.3669586 -8.861504 -8.856354 -18.373394q-4.5302124 9.51189 -8.937988 18.373394q-4.3669586 8.861504 -10.407242 17.844948l-0.9794922 1.5040207l-18.32492 -12.723167l1.2651978 -1.7479095q6.2851562 -8.739555 13.54982 -15.365364q7.2646637 -6.6257973 15.549652 -13.617443q-10.529678 -0.7316818 -20.56961 -1.8698578q-10.039932 -1.138176 -20.07985 -4.8778915l-1.9998322 -0.73168564l7.0197906 -20.974932l1.5100708 0.48778915q10.284805 3.495823 19.05954 8.251768q8.7747345 4.7559433 17.794342 9.715134q-1.9998322 -10.243572 -3.8772125 -19.83676q-1.8773804 -9.633836 -1.8773804 -20.121302l0 -1.9918056l22.569427 0l0 1.9918056z" fill-rule="nonzero"></path><path stroke="#000000" stroke-width="2.0" stroke-linejoin="round" stroke-linecap="butt" d="m254.33444 4.170051q0 10.487467 -1.8773956 20.121302q-1.8773804 9.593187 -3.8771973 19.83676q9.019608 -4.9591904 17.794327 -9.715134q8.77475 -4.755945 19.05954 -8.251768l1.5100708 -0.48778915l7.019806 20.974932l-1.9998474 0.73168564q-10.039917 3.7397156 -20.079834 4.8778915q-10.0399475 1.138176 -20.56961 1.8698578q8.284973 6.991646 15.549652 13.617443q7.2646484 6.6258087 13.549805 15.365364l1.2651978 1.7479095l-18.32492 12.723167l-0.9794922 -1.5040207q-6.040283 -8.983444 -10.448059 -17.844948q-4.3669586 -8.861504 -8.856354 -18.373394q-4.5302124 9.51189 -8.937988 18.373394q-4.3669586 8.861504 -10.407242 17.844948l-0.9794922 1.5040207l-18.32492 -12.723167l1.2651978 -1.7479095q6.2851562 -8.739555 13.54982 -15.365364q7.2646637 -6.6257973 15.549652 -13.617443q-10.529678 -0.7316818 -20.56961 -1.8698578q-10.039932 -1.138176 -20.07985 -4.8778915l-1.9998322 -0.73168564l7.0197906 -20.974932l1.5100708 0.48778915q10.284805 3.495823 19.05954 8.251768q8.7747345 4.7559433 17.794342 9.715134q-1.9998322 -10.243572 -3.8772125 -19.83676q-1.8773804 -9.633836 -1.8773804 -20.121302l0 -1.9918056l22.569427 0l0 1.9918056z" fill-rule="nonzero"></path><path fill="#000000" d="m331.2858 64.848045q-4.350128 11.50058 -14.500488 28.803253q-10.046753 17.199066 -22.475739 29.632126q-15.225494 15.230507 -32.21176 24.140862q-16.882706 8.806747 -36.769073 8.806747q-22.372162 0 -41.015625 -6.630966q-18.643478 -6.7345734 -34.179703 -14.505234q-15.846954 -8.08149 -31.279602 -14.608849q-15.329079 -6.5273514 -30.865303 -6.5273514q-20.818542 0 -34.386845 14.298019q-13.464729 14.298019 -26.51516 40.40744l-24.236513 -9.63562q4.039419 -11.811401 14.396902 -28.596039q10.46106 -16.78463 22.890041 -29.83934q12.118256 -13.054718 30.8653 -23.001167q18.850624 -9.946449 37.804817 -9.946449q22.993614 0 41.42994 6.734581q18.539886 6.6309586 34.38684 14.401627q16.779129 8.392311 30.55458 14.816063q13.879028 6.320137 30.968872 6.320137q21.750732 0 35.526184 -15.230499q13.879028 -15.230499 25.375824 -39.474968l24.236511 9.635628z" fill-rule="nonzero"></path><path stroke="#000000" stroke-width="2.0" stroke-linejoin="round" stroke-linecap="butt" d="m331.2858 64.848045q-4.350128 11.50058 -14.500488 28.803253q-10.046753 17.199066 -22.475739 29.632126q-15.225494 15.230507 -32.21176 24.140862q-16.882706 8.806747 -36.769073 8.806747q-22.372162 0 -41.015625 -6.630966q-18.643478 -6.7345734 -34.179703 -14.505234q-15.846954 -8.08149 -31.279602 -14.608849q-15.329079 -6.5273514 -30.865303 -6.5273514q-20.818542 0 -34.386845 14.298019q-13.464729 14.298019 -26.51516 40.40744l-24.236513 -9.63562q4.039419 -11.811401 14.396902 -28.596039q10.46106 -16.78463 22.890041 -29.83934q12.118256 -13.054718 30.8653 -23.001167q18.850624 -9.946449 37.804817 -9.946449q22.993614 0 41.42994 6.734581q18.539886 6.6309586 34.38684 14.401627q16.779129 8.392311 30.55458 14.816063q13.879028 6.320137 30.968872 6.320137q21.750732 0 35.526184 -15.230499q13.879028 -15.230499 25.375824 -39.474968l24.236511 9.635628z" fill-rule="nonzero"></path></g></svg>

